Coordinates
version=1
nRows=11
nColumns=42
inDegrees=yes

Units are S.I. units (second, meters, Newtons, ...)
If the header above contains a line with 'inDegrees', this indicates whether rotational values are in degrees (yes) or radians (no).

endheader
time	pelvis_tilt	pelvis_list	pelvis_rotation	pelvis_tx	pelvis_ty	pelvis_tz	hip_flexion_r	hip_adduction_r	hip_rotation_r	knee_angle_r	knee_adduction_r	knee_angle_r_beta	ankle_angle_r	subtalar_angle_r	mtp_angle_r	hip_flexion_l	hip_adduction_l	hip_rotation_l	knee_angle_l	knee_adduction_l	knee_angle_l_beta	ankle_angle_l	subtalar_angle_l	mtp_angle_l	lumbar_extension	lumbar_bending	lumbar_rotation	arm_flex_r	arm_add_r	arm_rot_r	elbow_flex_r	pro_sup_r	wrist_flex_r	wrist_dev_r	arm_flex_l	arm_add_l	arm_rot_l	elbow_flex_l	pro_sup_l	wrist_flex_l	wrist_dev_l
      0.40000000	     12.34566348	      2.88833951	      4.16985602	     -0.64554624	      0.92349417	     -0.22349592	    -25.89644908	      6.89285641	    -24.23050017	      1.23087619	     -1.99743503	      0.02148284	     21.90102246	     16.35630836	     -9.01157563	     17.00798040	      5.35352105	    -33.64359489	     16.39941323	     -9.39873282	      0.28622376	     16.93778651	     36.91589550	     -9.01157563	    -43.13009626	      0.05640221	      0.45233475	      4.81119004	    -12.17704542	      5.44466369	     40.75269904	     90.00000001	      0.00000000	      0.00000000	     -4.85382863	    -10.00308531	     16.59437838	     46.04827344	     90.00000001	      0.00000000	      0.00000000
      0.41000000	     12.43456570	      2.71980509	      4.10194571	     -0.63857314	      0.92184877	     -0.22381989	    -26.57006232	      7.03331022	    -24.29172274	      1.15402777	     -1.92863914	      0.02014158	     22.10008312	     16.42371714	     -9.00683248	     17.05291046	      5.40102639	    -33.44955985	     16.66797542	     -9.67498693	      0.29091105	     16.91189576	     36.89188228	     -9.00683248	    -43.12506455	      0.01910216	      0.55348941	      4.64838442	    -12.13057566	      5.50130761	     40.62310143	     90.00000001	      0.00000000	      0.00000000	     -4.86934049	     -9.99472412	     16.64684325	     45.98279814	     90.00000001	      0.00000000	      0.00000000
      0.42000000	     12.48374770	      2.53799359	      4.06420885	     -0.63138691	      0.92008922	     -0.22427706	    -27.22763758	      7.13887472	    -24.21619322	      1.08773678	     -1.74191050	      0.01898459	     22.41061402	     16.67503073	     -8.99379799	     17.19580011	      5.38691787	    -33.07117323	     17.31114743	     -9.93575373	      0.30213652	     16.83175212	     36.57279123	     -8.99379799	    -43.03813210	      0.01596773	      0.58987692	      4.48343898	    -12.03865957	      5.61487853	     40.46945468	     90.00000001	      0.00000000	      0.00000000	     -4.95830874	     -9.99518634	     16.73111940	     45.87207905	     90.00000001	      0.00000000	      0.00000000
      0.43000000	     12.58042017	      2.41328497	      3.86820780	     -0.62409533	      0.91858365	     -0.22447604	    -27.82482348	      7.19964413	    -24.16927439	      1.15259808	     -1.80655566	      0.02011663	     22.59271224	     16.77597814	     -8.98728478	     17.16629425	      5.46417003	    -32.62410704	     17.83964325	    -10.28526353	      0.31136051	     16.66664369	     36.33258953	     -8.98728478	    -43.02316545	     -0.15319246	      0.75095128	      4.28348876	    -12.00354574	      5.67479235	     40.30046791	     90.00000001	      0.00000000	      0.00000000	     -4.98578829	     -9.99232756	     16.73440366	     45.78537535	     90.00000001	      0.00000000	      0.00000000
      0.44000000	     12.53542024	      2.21294378	      3.77577535	     -0.61679435	      0.91683262	     -0.22489686	    -28.30044819	      7.31114936	    -23.90163843	      1.18658222	     -1.74774195	      0.02070977	     23.05090577	     17.11339236	     -8.96416300	     17.45319970	      5.35643325	    -31.93701538	     18.90690774	    -10.52081132	      0.32998779	     16.05850489	     35.11070135	     -8.96416300	    -42.83514540	     -0.18610009	      0.78698191	      4.15686060	    -11.90688031	      5.81952133	     40.03035887	     90.00000001	      0.00000000	      0.00000000	     -5.06619332	     -9.97271960	     16.76875861	     45.57508003	     90.00000001	      0.00000000	      0.00000000
      0.45000000	     12.60830058	      2.12892898	      3.51926536	     -0.60932330	      0.91556120	     -0.22519803	    -28.74912718	      7.29310770	    -23.69027277	      1.46991538	     -1.96271843	      0.02565486	     23.19569582	     17.18277412	     -8.95318279	     17.38928341	      5.48129517	    -31.27383421	     19.56243830	    -10.87541537	      0.34142896	     15.66691169	     34.50471847	     -8.95318279	    -42.79072728	     -0.40387362	      0.92558905	      3.98413089	    -11.82300100	      5.87417683	     39.85657314	     90.00000001	      0.00000000	      0.00000000	     -5.12181375	     -9.95527589	     16.75608073	     45.43669740	     90.00000001	      0.00000000	      0.00000000
      0.46000000	     12.48059831	      2.01644831	      3.42730595	     -0.60222402	      0.91423472	     -0.22566903	    -28.97814606	      7.39811032	    -23.17843745	      1.67249846	     -2.19240451	      0.02919060	     23.47049341	     17.04880318	     -8.87180275	     17.44194780	      5.77279040	    -28.82796512	     20.28932203	    -10.77945697	      0.35411547	     14.52417501	     30.17549443	     -8.87180275	    -42.58767915	     -0.55062423	      0.94449599	      3.92805421	    -11.66482304	      5.90664001	     39.41644107	     90.00000001	      0.00000000	      0.00000000	     -5.09841819	     -9.90160354	     16.67842062	     45.12081506	     90.00000001	      0.00000000	      0.00000000
      0.47000000	     12.52808368	      2.01238291	      3.11347489	     -0.59475213	      0.91339389	     -0.22593790	    -29.22591974	      7.23521066	    -22.83728085	      2.27966266	     -2.46275923	      0.03978762	     23.59430176	     16.97167298	     -8.85928391	     17.36745282	      5.92559344	    -28.20106885	     21.02463552	    -11.09385117	      0.36694911	     13.86210447	     29.57219752	     -8.85928391	    -42.56103889	     -0.90494784	      1.06574728	      3.78330412	    -11.57545552	      5.93828366	     39.24735972	     90.00000001	      0.00000000	      0.00000000	     -5.11804033	     -9.89445401	     16.67242690	     44.96330760	     90.00000001	      0.00000000	      0.00000000
      0.48000000	     12.41970827	      2.06040216	      2.93379929	     -0.58766561	      0.91273826	     -0.22661205	    -29.31194474	      7.06874686	    -22.13490559	      2.83825243	     -2.71018610	      0.04953685	     23.82146024	     16.11784333	     -8.77732494	     17.14168607	      6.47004862	    -25.31961144	     21.44937560	    -10.76273442	      0.37436223	     12.13564891	     23.91919506	     -8.77732494	    -42.41294087	     -1.20738785	      1.01696187	      3.78933319	    -11.34039784	      5.80994856	     38.72222329	     90.00000001	      0.00000000	      0.00000000	     -5.04854933	     -9.86777997	     16.65820724	     44.58678159	     90.00000001	      0.00000000	      0.00000000
      0.49000000	     12.42637419	      2.13441510	      2.65989463	     -0.58037704	      0.91249972	     -0.22712593	    -29.39064428	      6.79002119	    -21.56851797	      3.69467368	     -2.95883084	      0.06448422	     23.85135391	     15.31635622	     -8.69879663	     16.87253219	      6.79700163	    -23.79774532	     21.94775482	    -10.66637299	      0.38306058	     10.86790647	     21.04994007	     -8.69879663	    -42.39312295	     -1.58779706	      1.02692225	      3.73962467	    -11.17095876	      5.77352974	     38.39842301	     90.00000001	      0.00000000	      0.00000000	     -5.00023912	     -9.87788009	     16.69620250	     44.32487151	     90.00000001	      0.00000000	      0.00000000
      0.50000000	     12.46801463	      2.20141830	      2.30031537	     -0.57290594	      0.91249363	     -0.22745134	    -29.42397731	      6.47139596	    -21.12833161	      4.70475347	     -3.24938026	      0.08211344	     23.90245202	     14.87205238	     -8.67356113	     16.69088983	      6.86970733	    -23.41352388	     22.66549865	    -10.68646674	      0.39558758	      9.99921200	     19.82934865	     -8.67356113	    -42.37952314	     -2.02839323	      1.12704970	      3.66021910	    -11.01291774	      5.79243762	     38.06769098	     90.00000001	      0.00000000	      0.00000000	     -4.95268509	     -9.88292226	     16.73249507	     44.06817063	     90.00000001	      0.00000000	      0.00000000
